<?xml version="1.0" encoding="UTF-8" standalone="no"?>
<!-- Created with Inkscape (http://www.inkscape.org/) -->

<svg
   version="1.1"
   id="svg1"
   width="408"
   height="391"
   viewBox="0 0 408 391"
   sodipodi:docname="logo-menu.png"
   xmlns:inkscape="http://www.inkscape.org/namespaces/inkscape"
   xmlns:sodipodi="http://sodipodi.sourceforge.net/DTD/sodipodi-0.dtd"
   xmlns="http://www.w3.org/2000/svg"
   xmlns:svg="http://www.w3.org/2000/svg">
  <defs
     id="defs1" />
  <sodipodi:namedview
     id="namedview1"
     pagecolor="#505050"
     bordercolor="#eeeeee"
     borderopacity="1"
     inkscape:showpageshadow="0"
     inkscape:pageopacity="0"
     inkscape:pagecheckerboard="0"
     inkscape:deskcolor="#505050">
    <inkscape:page
       x="0"
       y="0"
       width="408"
       height="391"
       id="page2"
       margin="0"
       bleed="0" />
  </sodipodi:namedview>
  <g
     inkscape:groupmode="layer"
     inkscape:label="Image"
     id="g1">
    <path
       style="fill:#000000"
       d="M 162.5,352.37484 C 139.755,346.67059 130.94097,339.99121 104.52324,308.43934 89.605786,290.62278 84.087746,285.30748 67.5,272.7764 48.43374,258.37294 34.571506,244.61336 25.915663,231.5 c -4.567287,-6.91931 -8.568364,-18.60442 -9.483309,-27.69592 -1.541973,-15.32206 6.436513,-38.41162 17.376965,-50.28856 1.820126,-1.97593 4.441475,-6.61275 5.82522,-10.30406 C 49.620984,116.57144 67.99159,95.596922 91.5,83.99441 131.92185,64.044314 180.74007,72.496024 212.96215,105.02269 235.69893,127.97439 247,155.5439 247,188.0597 c 0,25.29405 -6.8937,48.52027 -20.31355,68.4403 -4.80262,7.12887 -16.35881,19.3399 -22.75361,24.04298 -24.21533,17.80922 -54.44409,23.81997 -83.23085,16.54979 -6.33126,-1.59898 -15.44155,-4.74898 -20.24511,-7 C 95.65333,287.84174 91.55953,286 91.35955,286 c -0.19998,0 1.353623,1.6875 3.452452,3.75 2.098828,2.0625 6.698068,7.125 10.220538,11.25 19.62913,22.98675 32.27914,35.11437 41.46746,39.75504 12.18955,6.15647 31.80912,8.80261 43.5,5.86694 15.74291,-3.95316 31.06667,-14.52553 39.17027,-27.0249 6.25154,-9.64265 7.90362,-16.54366 8.76121,-36.59708 0.78907,-18.45108 1.81936,-22.95603 6.36625,-27.83659 2.44093,-2.62005 11.03085,-7.19613 17.20227,-9.16411 17.67676,-5.63688 32.19734,-19.32678 36.29873,-34.22219 0.97905,-3.55571 0.8831,-3.81076 -2.13682,-5.67995 -10.32876,-6.393 -14.40577,-17.79842 -9.6762,-27.06915 1.09214,-2.14077 2.42249,-4.16226 2.95633,-4.49219 2.04728,-1.26529 -0.77149,-4.17602 -17.49499,-18.06571 -9.49646,-7.88729 -19.63146,-17.18218 -22.52221,-20.65532 -8.9977,-10.81041 -17.0209,-30.61436 -18.44396,-45.525914 -3.22587,-33.802101 27.00355,-59.104764 58.85847,-49.265782 7.89015,2.437019 16.2596,9.524674 20.84824,17.655298 l 2.98899,5.296201 4.16171,-2.804182 c 9.04064,-6.091631 14.21373,-7.587962 26.16171,-7.56735 15.14916,0.02614 22.02921,2.779889 32.04958,12.827909 22.77102,22.833858 18.08103,52.1751 -11.54958,72.25578 -5.87218,3.97957 -16.72664,9.41136 -31,15.51301 -13.87734,5.93235 -22.74794,10.67837 -29.69801,15.88926 l -5.198,3.89726 2.54725,5.75686 c 1.56313,3.53271 2.96266,9.30314 3.62248,14.93585 1.22513,10.45871 1.04385,10.29246 11.22628,10.29549 11.70008,0.003 23.26341,-4.81839 31.43346,-13.10765 2.5116,-2.54825 7.64317,-9.74825 11.4035,-16 l 6.83696,-11.36683 -0.57911,4.83234 c -1.45509,12.14169 -12.46097,26.92263 -25.59481,34.37394 -8.52091,4.83422 -15.76221,6.54133 -26.04481,6.13997 l -8.8708,-0.34625 -2.18167,6 c -6.08536,16.73587 -18.44792,27.46128 -41.40272,35.91983 -15.9155,5.86466 -16.66902,7.15634 -17.54772,30.08017 -0.66105,17.2457 -1.96621,24.70087 -5.95231,34.00008 -6.33146,14.77068 -20.16099,27.02797 -38.49997,34.12301 -6.17116,2.38751 -8.59848,2.74045 -20.5,2.98076 -7.425,0.14992 -14.4,0.0469 -15.5,-0.22901 z m 4.07377,-60.90027 c 18.90592,-4.72964 31.32984,-12.07508 40.19828,-23.76656 5.41041,-7.13269 9.90373,-17.18238 11.32084,-25.32005 1.25218,-7.19054 0.71618,-24.03229 -0.9038,-28.39829 -0.85507,-2.3045 -0.97954,-2.15498 -1.67356,2.01033 -2.72585,16.35974 -16.99258,38.44452 -32.21523,49.86891 -16.18161,12.14408 -34.5387,17.76778 -61.8003,18.93257 -16.79402,0.71754 -16.96175,0.74711 -13.84317,2.43993 1.73626,0.94248 6.48742,2.62733 10.55815,3.74411 15.93865,4.37271 32.17805,4.53693 48.35879,0.48905 z M 93.904649,270.55897 C 84.192276,250.87166 79.537216,230.1004 79.548347,206.5 c 0.01,-21.0956 2.924,-33.57313 12.093191,-51.78128 11.318352,-22.47595 30.799572,-42.00475 49.149952,-49.27 6.60098,-2.61345 4.17336,-2.92936 -3.98836,-0.51901 C 101.76164,115.27828 82.884367,136.6976 73.28616,177 c -2.785878,11.69777 -2.486975,43.19965 0.52984,55.84085 3.045968,12.76335 7.213035,23.17077 13.080015,32.66787 C 90.889415,271.97298 98.463111,282 99.352357,282 c 0.108081,0 -2.343387,-5.14846 -5.447708,-11.44103 z m 38.306131,9.3591 c 14.59314,-1.53449 24.85068,-4.30747 35.78922,-9.67509 7.86183,-3.85785 10.97678,-6.13445 18.06407,-13.20235 13.99119,-13.9529 21.79258,-27.6597 25.99764,-45.67706 l 2.13235,-9.13644 -2.28516,-4.86356 c -2.25311,-4.79534 -2.29044,-4.82148 -2.66109,-1.86357 -1.10899,8.85005 -7.98405,24.90386 -16.03662,37.44676 -16.31238,25.40861 -39.15489,38.91968 -76.21119,45.07801 -7.425,1.23395 -13.6875,2.40817 -13.91667,2.60939 -0.91294,0.80158 19.45675,0.3008 29.12745,-0.71609 z M 88.351592,273.75 C 82.67246,266.10735 75.002574,250.10672 72.173556,240 62.07117,203.90902 67.60109,161.0936 85.832328,134.24691 96.396433,118.69057 110.84173,108.30779 131.5,101.42253 c 3.85,-1.28318 6.01073,-2.353182 4.80162,-2.377789 -3.48726,-0.07097 -18.15982,4.868919 -25.65087,8.636019 -19.693647,9.90354 -33.801661,24.03287 -42.754627,42.81924 -7.494431,15.72586 -9.342088,24.08844 -9.279633,42 0.04545,13.03397 0.412049,16.37622 2.797011,25.5 7.331995,28.04887 23.376048,59.75985 31.334431,61.93232 0.136363,0.0372 -1.84199,-2.74482 -4.39634,-6.18232 z m 34.527078,-1.37116 c 25.87376,-5.10532 45.93002,-15.32711 58.38274,-29.7551 12.15411,-14.08201 22.24072,-34.8629 25.18281,-51.88276 0.58058,-3.35862 0.13882,-4.50317 -4.14721,-10.74497 -2.63836,-3.84227 -5.13983,-6.98821 -5.55883,-6.99098 -0.419,-0.003 -0.48778,1.70871 -0.15284,3.80329 1.0273,6.42437 -1.38349,21.54536 -5.08717,31.90779 C 181.19999,237.52917 158.98411,258.55232 128.5,268.33203 119.23041,271.30585 110.45338,273 104.31634,273 101.35436,273 100,273.4246 100,274.35321 c 0,1.79673 6.69476,1.21899 22.87867,-1.97437 z m -10.04807,-4.88157 c 22.99951,-3.7589 45.88176,-16.50311 59.69107,-33.24478 6.79052,-8.23246 14.88681,-24.25515 17.56048,-34.75249 1.12068,-4.4 2.3031,-13.0742 2.62761,-19.276 0.56655,-10.82756 0.49758,-11.3744 -1.73419,-13.75 -1.27831,-1.3607 -2.58326,-2.47091 -2.89988,-2.46713 -0.31663,0.004 -0.61865,4.61628 -0.67115,10.25 -0.0682,7.32067 -0.73441,12.5256 -2.33494,18.24313 -2.70158,9.65075 -10.34003,26.08651 -15.86186,34.13016 -4.15912,6.0586 -13.60477,15.66495 -20.83618,21.19069 C 137.93479,255.79588 114.35569,264 101.87178,264 c -6.037026,0 -6.711984,0.56155 -4.852084,4.0368 0.736826,1.37677 1.7771,1.77773 3.750004,1.44537 1.50166,-0.25298 6.92907,-1.14618 12.0609,-1.9849 z M 74.494089,262.98954 C 66.712889,249.22319 60.167081,232.20266 55.845839,214.5 c -3.193674,-13.0834 -3.137827,-33.47478 0.125984,-46 3.104616,-11.9143 7.610738,-22.45865 13.465284,-31.50885 14.301371,-22.10766 42.001793,-39.121581 69.885253,-42.924335 9.63404,-1.313893 30.63199,-1.335464 40.60007,-0.04171 4.08234,0.529846 7.61596,0.769834 7.85249,0.533306 0.23653,-0.236527 -2.7555,-2.034265 -6.64894,-3.994972 C 163.02075,81.445795 133.39695,83.677393 109,95.99678 62.108556,119.6749 38.856124,168.65921 51.397039,217.34501 c 4.760902,18.48257 15.945833,42.38154 22.887971,48.90499 1.609575,1.5125 3.079476,2.75 3.266445,2.75 0.18697,0 -1.188845,-2.70471 -3.057366,-6.01046 z M 58.631277,256.63479 C 47.331286,241.8248 40.763756,228.19846 36.395552,210.5 33.501643,198.77488 32.332159,180.23221 33.778151,169 c 0.531037,-4.125 0.827077,-7.65862 0.657868,-7.85248 -0.928779,-1.06412 -7.987291,15.57152 -10.039324,23.66088 -5.658199,22.30528 -0.882871,37.66596 18.553432,59.68036 5.547265,6.28307 20.480469,20.30628 21.806832,20.47798 0.141327,0.0183 -2.61523,-3.73109 -6.125682,-8.33195 z M 104.07653,257.25 c 3.01538,-8.07401 6.10259,-12.54722 14.36463,-20.81359 8.08061,-8.08485 10.30068,-9.67131 20.55884,-14.69139 11.50218,-5.62888 17.67717,-7.41614 28,-8.10418 5.38919,-0.3592 5.54285,-0.45497 7.62674,-4.75371 4.18905,-8.64139 4.15268,-8.88807 -1.30935,-8.88012 -7.0404,0.0102 -20.73323,3.5678 -28.79307,7.48078 -14.72074,7.14681 -26.40317,16.53739 -36.90944,29.6686 C 102.11065,244.03584 94,257.28454 94,259.39623 94,259.72831 96.036138,260 98.524751,260 c 4.020449,0 4.639219,-0.3065 5.551779,-2.75 z m 9.71868,1.10789 c 1.34862,-0.36124 3.16186,-2.31358 4.3966,-4.73386 C 124.44625,241.36431 148.51542,226 161.46662,226 c 3.12682,0 3.86551,-0.53951 6.47161,-4.7266 1.61805,-2.59962 2.76364,-4.90486 2.54575,-5.12275 -1.28095,-1.28096 -20.42487,4.7675 -30.38295,9.59938 -10.0347,4.86906 -12.43391,6.56144 -20.04636,14.1405 -4.75607,4.73521 -10.08487,10.97197 -11.84179,13.85947 l -3.19439,5.25 3.24075,-0.0136 c 1.78242,-0.008 4.2736,-0.29032 5.53597,-0.62846 z m 16.39434,-5.37067 c 9.24374,-3.93356 18.90947,-10.45923 26.05724,-17.59214 3.16073,-3.15416 5.59707,-5.88456 5.41408,-6.06755 -0.6628,-0.6628 -11.82438,3.64934 -18.42787,7.11937 C 133.70317,241.45468 117.9228,256 122.01963,256 c 0.5995,0 4.27596,-1.35575 8.16992,-3.01278 z m -26.72907,-16.39159 c 9.73971,-12.94104 23.73342,-24.6684 38.1828,-31.99891 7.92587,-4.02098 20.48584,-7.59082 26.76668,-7.60773 2.24952,-0.006 5.77242,-0.2891 7.82865,-0.62899 3.23968,-0.53552 3.86997,-1.09373 4.7229,-4.18277 0.54135,-1.96062 0.88398,-3.65698 0.76139,-3.76967 -0.52026,-0.47825 -26.69332,5.61599 -31.7229,7.38649 -11.36859,4.00193 -20.64773,8.45252 -28.45861,13.6497 -8.45974,5.62891 -23.810461,20.68997 -29.417059,28.86197 -3.240784,4.72366 -3.276279,4.8944 -2.078832,10 0.670036,2.85685 1.409101,5.52958 1.642366,5.93938 0.233265,0.40981 1.727692,-1.73303 3.32095,-4.76186 1.593257,-3.02883 5.396505,-8.82825 8.451665,-12.88761 z m -11.48207,-2.71191 c 4.16648,-6.42998 17.72703,-20.26376 25.19311,-25.70073 14.58636,-10.62212 39.23171,-19.85053 58.16631,-21.78029 3.76081,-0.38329 7.02065,-1.19319 7.24411,-1.79979 0.64226,-1.74354 2.18617,-17.05552 1.76786,-17.53308 -0.49956,-0.57031 -11.33299,3.19186 -24.48857,8.50424 C 132.78683,186.50703 113.08025,198.83983 96.75,215.0704 90.289254,221.49171 86,226.54602 86,227.73782 86,231.64424 87.285056,239 87.967509,239 c 0.382614,0 2.187519,-2.30233 4.010901,-5.11628 z M 49.966392,228.56581 C 37.25526,190.49165 43.719517,151.13985 67.401612,122.42718 84.98298,101.11116 113.76455,84.547223 138.61758,81.442042 c 5.06347,-0.632638 5.50922,-0.851106 3.36017,-1.646844 -3.14879,-1.165914 -14.93012,-0.148611 -26.3032,2.271249 -10.24575,2.179997 -24.663887,8.684137 -33.967368,15.322963 -7.148154,5.10082 -19.641135,17.74734 -24.481089,24.78198 -21.578939,31.36391 -24.408913,75.52429 -7.120334,111.10939 1.2493,2.57144 2.393607,4.55319 2.542906,4.40389 0.149299,-0.1493 -1.057724,-4.25279 -2.682273,-9.11886 z M 229.21913,217 c 0.13562,-23.20934 -7.12926,-47.09829 -20.70525,-68.08463 -6.15522,-9.51499 -19.52172,-22.66219 -28.1633,-27.70123 -3.76782,-2.19707 -12.32831,-6.10808 -19.02332,-8.69113 l -12.17273,-4.69646 -8.59974,4.26134 C 128.90505,117.86057 128.10298,119 135.68922,119 c 11.76905,0 29.48893,6.29285 42.39042,15.05408 12.68866,8.61671 28.15491,27.3003 35.98963,43.47631 8.13139,16.78854 12.85183,34.67788 13.01668,49.33008 0.0727,6.46416 0.23827,7.17797 1.07597,4.63953 0.54451,-1.65 1.02025,-8.175 1.05721,-14.5 z m 7.50007,-4.34889 c 1.59977,-30.26797 -10.42433,-61.5817 -32.59426,-84.88355 -7.53592,-7.92068 -14.80957,-13.22662 -28.15828,-20.54073 l -7.53334,-4.12772 -6.71666,1.53207 C 158.0225,105.47383 155,106.48953 155,106.8883 c 0,0.39877 3.2625,1.50221 7.25,2.4521 23.55712,5.61167 43.72162,23.6384 57.22657,51.1596 10.85131,22.11344 15.14014,40.35442 14.32865,60.94171 -0.41818,10.60921 -0.3795,10.87554 0.95235,6.55829 0.76353,-2.475 1.64626,-9.382 1.96163,-15.34889 z m -135.83532,-7.9308 c 0.23373,-0.62321 -0.54858,-0.77404 -1.999999,-0.38561 -1.311135,0.3509 -5.196381,0.64414 -8.633881,0.65165 L 84,205 l 0.0087,3.25 c 0.0048,1.7875 0.289381,5.58648 0.632444,8.44219 l 0.623752,5.19219 7.617556,-8.07024 c 4.189656,-4.43863 7.790308,-8.53085 8.001438,-9.09383 z m 142.10081,-10.56323 c 0.0319,-27.78936 -8.64707,-52.77924 -25.82838,-74.36934 C 206.09755,105.89127 203.19025,104.3352 186.5,103.37953 l -10,-0.57259 7.64772,3.92904 c 13.14879,6.75523 21.39294,14.10097 32.44169,28.90636 13.7879,18.47587 22.59838,42.11704 24.07112,64.5901 0.90687,13.83822 2.3055,10.1822 2.32416,-6.07536 z m -148.188232,6.70348 c 2.940196,-0.54352 6.635822,-0.70489 8.212512,-0.35859 2.31062,0.5075 3.84345,-0.0996 7.90208,-3.12962 2.76945,-2.0676 4.91763,-3.877 4.77372,-4.02091 -0.1439,-0.14391 -6.95884,0.37868 -15.14431,1.16129 -15.453364,1.4775 -16.496139,1.87793 -16.525147,6.34568 -0.01344,2.07028 0.317638,2.27484 2.71001,1.67439 1.498928,-0.3762 5.130939,-1.12871 8.071135,-1.67224 z M 297.05308,186.94883 c -1.1439,-3.76603 -2.50463,-7.10987 -3.02386,-7.43077 -1.20958,-0.74756 -4.03602,4.67097 -4.00726,7.68228 0.0333,3.48611 3.46589,10.32642 6.11983,12.19528 2.34071,1.64829 2.36056,1.63367 2.67465,-1.96943 0.17404,-1.99653 -0.61947,-6.71134 -1.76336,-10.47736 z m -189.34892,3.54161 c 11.48105,-0.2052 13.63426,-0.51139 16.5,-2.34637 l 3.29584,-2.11038 -20.75,-0.0168 C 95.3375,186.00758 86,186.39375 86,186.875 c 0,0.48125 -0.27548,2.2524 -0.612179,3.93589 l -0.612178,3.0609 4.862178,-1.57268 c 3.199063,-1.03474 9.378684,-1.6534 18.066339,-1.80867 z m 4.83605,-7.97039 c 15.31723,-0.0754 21.93812,-0.47554 24.34132,-1.47098 4.36894,-1.80967 2.87702,-2.52761 -8.42647,-4.05492 -8.70378,-1.17604 -38.669423,-1.11312 -39.866257,0.0837 -0.312383,0.31239 -0.868088,2.06856 -1.234898,3.90262 -0.637246,3.18622 -0.559822,3.297 1.739583,2.48891 1.323582,-0.46515 11.874612,-0.89235 23.446722,-0.94934 z m 92.95629,-10.0798 c -5.88623,-9.95614 -9.16957,-14.22301 -17.91206,-23.27763 C 174.08016,135.17619 157.89314,126.6511 136,121.99506 c -3.025,-0.64333 -6.21069,-1.36134 -7.07931,-1.59559 -0.89651,-0.24176 -4.05614,1.74152 -7.30819,4.58732 L 115.88362,130 h 7.47022 c 13.41168,0 30.56411,4.40839 44.54328,11.44819 12.4934,6.29158 27.70834,20.00007 37.31134,33.61713 2.28816,3.2446 4.32537,5.73419 4.52714,5.53242 0.20177,-0.20177 -1.70583,-3.87264 -4.2391,-8.15749 z m -54.8175,2.35886 c 1.82655,-0.66049 3.321,-1.48989 3.321,-1.84311 0,-1.07991 -14.92098,-4.79914 -25.5,-6.35616 -5.5,-0.8095 -15.72572,-1.78589 -22.72383,-2.16976 l -12.723828,-0.69795 -0.892641,2.38394 c -2.620883,6.99947 -4.273506,6.37357 17.102259,6.47721 13.13897,0.0637 21.61578,0.58421 26.73804,1.64181 9.56436,1.97476 10.66112,2.01691 14.679,0.56402 z m 15.89585,-6.14746 c 3.80883,-1.29159 8.72515,-2.66558 10.92515,-3.05332 9.44047,-1.66381 9.94335,-3.63441 2.34993,-9.20849 l -5.15006,-3.7805 -7.81479,8.44533 C 160.04895,168.44238 158.1047,171 159.32485,171 c 0.17866,0 3.44116,-1.05676 7.25,-2.34835 z M 156,167.98904 c 0,-0.55603 3.47682,-4.65011 7.72627,-9.09796 7.31,-7.65129 7.62297,-8.16254 5.80887,-9.48904 -1.05457,-0.77112 -2.16889,-1.36846 -2.47627,-1.32742 -0.74169,0.099 -16.47215,17.67965 -16.86421,18.84772 -0.16794,0.50033 0.50706,1.12029 1.5,1.37768 3.14088,0.81417 4.30534,0.73006 4.30534,-0.31098 z m 159.5,-11.76975 c 5.5,-2.73914 11.125,-5.30792 12.5,-5.70838 1.375,-0.40047 7.9,-3.36768 14.5,-6.5938 19.48188,-9.52285 28.95957,-17.88553 36.17266,-31.91711 2.48999,-4.84375 2.82608,-6.57386 2.81676,-14.5 -0.01,-8.208269 -0.29302,-9.527821 -3.22132,-15 -3.7609,-7.028095 -6.3133,-10.021076 -12.70956,-14.903455 -10.53054,-8.038139 -27.76763,-9.85214 -40.07539,-4.217463 -5.96438,2.730584 -10.77108,6.346025 -10.03037,7.544515 0.21513,0.348083 0.89237,4.293648 1.50498,8.767923 1.93578,14.138092 -1.31409,25.78391 -9.17773,32.88825 -4.56088,4.12047 -7.92683,4.36434 -11.46083,0.83034 -2.46918,-2.46918 -2.56551,-2.97024 -2.06671,-10.75 0.60851,-9.490925 3.91611,-18.689668 9.99177,-27.788041 4.50563,-6.74722 4.39462,-8.176245 -1.27532,-16.41722 -6.71416,-9.758687 -16.69056,-14.06607 -30.57272,-13.199993 -10.86085,0.677585 -17.71565,3.81493 -25.32397,11.590429 -11.2175,11.46398 -14.05071,26.652939 -8.52705,45.713935 5.59678,19.3133 12.90792,29.68581 31.88471,45.23566 7.18539,5.88782 15.51217,13.01374 18.50394,15.83539 l 5.43958,5.13027 5.56329,-3.7805 C 302.99652,162.90077 310,158.95843 315.5,156.21929 Z m -158.51224,-2.55338 c 6.21869,-6.53558 6.41734,-6.89652 4.54792,-8.26348 -1.07514,-0.78616 -2.29061,-1.31082 -2.70104,-1.16591 -1.01969,0.36003 -17.81544,20.09339 -17.8261,20.94393 -0.005,0.37425 1.00396,0.8575 2.24146,1.07389 1.59003,0.27804 2.98111,-0.50819 4.74252,-2.68045 1.37088,-1.69064 5.41874,-6.14923 8.99524,-9.90798 z M 145,153.80881 c 4.675,-5.60502 8.6309,-10.49767 8.79089,-10.87255 0.15999,-0.37489 -0.61772,-0.91922 -1.72824,-1.20963 -1.52625,-0.39912 -3.42805,0.97895 -7.79089,5.64538 C 137.47569,154.641 131,162.43859 131,163.35299 c 0,0.35586 1.2375,0.64695 2.75,0.64689 2.26399,-1e-4 4.2522,-1.80117 11.25,-10.19107 z M 129.2434,159.25 c 1.38005,-2.0625 5.99742,-7.20972 10.26082,-11.43826 l 7.75165,-7.68825 -3.37794,-0.91513 c -2.00433,-0.54301 -4.09676,-0.54995 -5.14566,-0.0171 -1.70236,0.86485 -18.90953,20.07172 -19.54156,21.81254 -0.26714,0.73581 1.1218,1.13486 6.4264,1.84634 0.61442,0.0824 2.24625,-1.53767 3.62629,-3.60017 z m -24.9304,0.10772 c 1.99364,-3.44606 11.33632,-14.27522 16.00576,-18.55239 2.81888,-2.58207 4.9101,-4.90981 4.64716,-5.17275 -0.26295,-0.26294 -3.19627,-0.7856 -6.5185,-1.16147 l -6.04042,-0.6834 -4.11913,5.35615 C 102.91962,146.12424 95,159.02657 95,160.79191 c 0,1.83703 8.14628,0.58251 9.313,-1.43419 z m 16.1389,-6.22789 c 3.65282,-4.32859 8.42049,-9.29979 10.5948,-11.04712 4.50503,-3.62034 4.97464,-5.08271 1.6322,-5.08271 -2.58896,0 -7.51447,4.44195 -18.05147,16.2793 L 107.75486,161 h 3.02777 c 2.55129,0 4.07293,-1.23852 9.66927,-7.87017 z m 181.91909,-42.7187 c 2.86202,-1.09826 7.66802,-10.00799 8.65913,-16.052935 1.13469,-6.92068 0.21642,-18.607041 -1.41923,-18.061824 -0.60805,0.202681 -2.96489,4.025919 -5.23744,8.496085 -4.76669,9.376231 -7.06719,19.252654 -5.46567,23.464994 1.13302,2.98005 1.20045,3.02199 3.46321,2.15368 z"
       id="path1" />
  </g>
</svg>
